<svg data-v-423bf9ae="" xmlns="http://www.w3.org/2000/svg" viewBox="0 0 480.7117056222934 60" class="font"><!----><!----><!----><g data-v-423bf9ae="" id="6284c038-1600-40db-b5a1-006f49edd9e7" fill="white" transform="matrix(5.474453012044838,0,0,5.474453012044838,-2.5182424693766166,-14.726279392488486)"><path d="M2.18 13.47L2.18 9.10L4.35 9.10L4.35 7.41L2.18 7.41L2.18 4.62L4.40 4.62L4.40 2.87L0.46 2.87L0.46 13.47ZM9.07 13.47L9.07 11.63L6.82 11.63L6.82 8.89L9.04 8.89L9.04 7.22L6.82 7.22L6.82 4.62L9.09 4.62L9.09 2.87L5.10 2.87L5.10 13.47ZM14.06 6.16C14.13 5.91 14.15 5.59 14.15 5.00C14.15 3.28 13.73 2.69 11.97 2.69C10.28 2.69 9.74 3.26 9.74 5.26C9.74 7.20 9.84 7.52 10.30 7.94C10.84 8.43 11.89 8.79 12.38 9.28C12.66 9.56 12.68 9.67 12.68 10.44C12.68 11.77 12.52 11.90 11.96 11.90C11.42 11.90 11.27 11.70 11.27 10.54C11.27 10.28 11.27 10.08 11.30 9.93L9.86 9.93C9.80 10.18 9.76 10.57 9.76 11.02C9.76 13.20 10.37 13.65 11.93 13.65C13.71 13.65 14.28 13.09 14.28 10.47C14.28 8.57 14.11 8.29 13.44 7.83C12.99 7.52 12.04 7.13 11.61 6.75C11.33 6.50 11.31 6.41 11.31 5.52C11.31 4.51 11.45 4.37 11.97 4.37C12.57 4.37 12.66 4.69 12.66 5.50C12.66 5.84 12.64 6.01 12.63 6.16ZM17.81 13.47L17.81 4.62L19.29 4.62L19.29 2.87L14.59 2.87L14.59 4.62L16.09 4.62L16.09 13.47ZM21.71 13.47L21.71 2.87L19.95 2.87L19.95 13.47ZM26.28 13.47L27.51 2.87L25.69 2.87C25.10 10.01 25.03 10.57 25.02 11.13L24.89 11.13C24.88 10.57 24.82 10.01 24.25 2.87L22.40 2.87L23.58 13.47ZM32.38 13.47L31.36 2.87L28.46 2.87L27.37 13.47L29.09 13.47L29.30 10.81L30.39 10.81L30.60 13.47ZM30.32 9.13L29.37 9.13L29.79 4.61L29.92 4.61ZM36.83 13.47L36.83 11.63L34.76 11.63L34.76 2.87L33.04 2.87L33.04 13.47ZM39.98 13.47C41.15 13.47 41.68 13.27 41.99 12.64C42.29 12.03 42.42 11.44 42.42 8.16C42.42 4.96 42.31 4.34 41.99 3.71C41.66 3.09 41.13 2.87 39.98 2.87L37.48 2.87L37.48 13.47ZM39.20 11.65L39.20 4.62L39.94 4.62C40.29 4.62 40.45 4.70 40.53 4.94C40.66 5.28 40.67 5.71 40.67 8.13C40.67 10.60 40.63 10.98 40.53 11.31C40.45 11.56 40.31 11.65 39.94 11.65ZM45.00 13.47L45.00 2.87L43.23 2.87L43.23 13.47ZM50.06 6.16C50.13 5.91 50.16 5.59 50.16 5.00C50.16 3.28 49.74 2.69 47.98 2.69C46.28 2.69 45.75 3.26 45.75 5.26C45.75 7.20 45.85 7.52 46.31 7.94C46.84 8.43 47.89 8.79 48.38 9.28C48.66 9.56 48.69 9.67 48.69 10.44C48.69 11.77 48.52 11.90 47.96 11.90C47.43 11.90 47.28 11.70 47.28 10.54C47.28 10.28 47.28 10.08 47.31 9.93L45.86 9.93C45.81 10.18 45.77 10.57 45.77 11.02C45.77 13.20 46.38 13.65 47.94 13.65C49.71 13.65 50.29 13.09 50.29 10.47C50.29 8.57 50.12 8.29 49.45 7.83C49.00 7.52 48.05 7.13 47.61 6.75C47.33 6.50 47.32 6.41 47.32 5.52C47.32 4.51 47.46 4.37 47.98 4.37C48.58 4.37 48.66 4.69 48.66 5.50C48.66 5.84 48.65 6.01 48.64 6.16ZM54.05 9.41C54.07 9.55 54.07 9.65 54.07 9.81C54.07 10.61 54.04 11.05 53.96 11.42C53.90 11.68 53.73 11.82 53.41 11.82C52.99 11.82 52.85 11.72 52.78 11.47C52.67 11.09 52.63 10.64 52.63 8.06C52.63 5.53 52.67 5.11 52.78 4.75C52.85 4.49 52.99 4.40 53.35 4.40C53.70 4.40 53.82 4.49 53.90 4.68C54.00 4.89 54.05 5.38 54.05 6.01C54.05 6.38 54.05 6.55 54.04 6.75L55.68 6.75C55.71 6.50 55.71 6.34 55.71 5.89C55.71 4.66 55.55 3.81 55.22 3.33C54.92 2.88 54.42 2.69 53.35 2.69C52.18 2.69 51.69 2.91 51.37 3.54C51.10 4.06 50.92 4.56 50.92 8.08C50.92 11.35 51.04 12.17 51.35 12.78C51.66 13.43 52.22 13.65 53.41 13.65C55.34 13.65 55.73 12.59 55.73 10.36C55.73 9.90 55.73 9.66 55.69 9.41ZM60.84 12.78C61.15 12.14 61.28 11.49 61.28 8.16C61.28 4.83 61.15 4.21 60.84 3.56C60.54 2.91 59.99 2.69 58.86 2.69C57.69 2.69 57.16 2.91 56.85 3.56C56.55 4.21 56.42 4.83 56.42 8.16C56.42 11.49 56.55 12.14 56.85 12.78C57.16 13.44 57.69 13.65 58.86 13.65C59.99 13.65 60.54 13.44 60.84 12.78ZM59.43 11.47C59.36 11.72 59.21 11.82 58.86 11.82C58.49 11.82 58.35 11.72 58.28 11.47C58.17 11.10 58.13 10.72 58.13 8.12C58.13 5.47 58.17 5.11 58.28 4.75C58.35 4.49 58.49 4.40 58.86 4.40C59.21 4.40 59.36 4.49 59.43 4.76C59.53 5.11 59.57 5.47 59.57 8.12C59.57 10.72 59.54 11.09 59.43 11.47ZM65.13 10.37C65.13 11.19 65.11 11.40 65.02 11.59C64.93 11.77 64.81 11.82 64.44 11.82C64.06 11.82 63.94 11.75 63.85 11.58C63.76 11.38 63.74 11.19 63.74 10.37L63.74 2.87L61.98 2.87L61.98 10.37C61.98 11.94 62.09 12.40 62.37 12.89C62.69 13.47 63.24 13.65 64.41 13.65C65.59 13.65 66.12 13.47 66.44 12.89C66.72 12.40 66.81 11.94 66.84 10.37L66.84 2.87L65.13 2.87ZM72.55 13.47L72.55 2.87L70.97 2.87L70.97 7.39L70.90 7.39L69.45 2.87L67.66 2.87L67.66 13.47L69.23 13.47L69.23 6.94L69.30 6.94L71.65 13.47ZM76.37 13.47L76.37 4.62L77.85 4.62L77.85 2.87L73.15 2.87L73.15 4.62L74.65 4.62L74.65 13.47ZM82.46 13.47L82.46 11.63L80.21 11.63L80.21 8.89L82.43 8.89L82.43 7.22L80.21 7.22L80.21 4.62L82.47 4.62L82.47 2.87L78.48 2.87L78.48 13.47ZM88.27 13.47L88.27 13.41C88.20 13.19 88.16 12.99 88.07 12.18C87.96 11.14 87.93 10.42 87.78 9.62C87.67 9.06 87.54 8.71 87.26 8.51L87.26 8.43C87.72 8.19 88.09 8.06 88.09 5.73C88.09 3.65 87.68 2.87 86.06 2.87L83.33 2.87L83.33 13.47L85.05 13.47L85.05 9.17L85.51 9.17C85.83 9.17 85.95 9.30 86.06 10.07C86.17 10.88 86.20 11.62 86.25 12.15C86.35 13.09 86.38 13.26 86.46 13.47ZM85.05 7.62L85.05 4.58L85.72 4.58C86.07 4.58 86.35 4.61 86.35 5.92C86.35 7.59 86.09 7.62 85.64 7.62Z"></path></g><!----><!----></svg>